<svg width="111" height="63" viewBox="0 0 111 63" fill="none" xmlns="http://www.w3.org/2000/svg">
<path fill-rule="evenodd" clip-rule="evenodd" d="M111 0H0V49H22.5L18.3114 61.5658C18.0232 62.4304 18.9473 63.1984 19.7446 62.7569L44.5833 49H111V0Z" fill="#DA5A5A"/>
<path d="M34.4608 31.2525C33.3805 31.2525 32.4265 31.0701 31.5987 30.7054C30.7709 30.3266 30.1185 29.7934 29.6415 29.106C29.1645 28.4045 28.919 27.5556 28.9049 26.5595H31.746C31.7741 27.247 32.0196 27.8292 32.4826 28.3062C32.9596 28.7692 33.612 29.0007 34.4398 29.0007C35.1553 29.0007 35.7235 28.8324 36.1444 28.4957C36.5653 28.1449 36.7757 27.6819 36.7757 27.1067C36.7757 26.5034 36.5863 26.0334 36.2075 25.6967C35.8427 25.36 35.3517 25.0864 34.7344 24.8759C34.1171 24.6655 33.4577 24.441 32.7562 24.2025C31.6197 23.8096 30.7499 23.3046 30.1466 22.6873C29.5573 22.0699 29.2627 21.2492 29.2627 20.225C29.2487 19.3551 29.4521 18.6115 29.873 17.9942C30.3079 17.3629 30.8972 16.8788 31.6408 16.5421C32.3844 16.1914 33.2402 16.016 34.2083 16.016C35.1904 16.016 36.0532 16.1914 36.7968 16.5421C37.5544 16.8929 38.1437 17.3839 38.5646 18.0153C38.9995 18.6466 39.231 19.3972 39.259 20.2671H36.3759C36.3619 19.748 36.1584 19.292 35.7656 18.8992C35.3868 18.4923 34.8536 18.2889 34.1662 18.2889C33.5769 18.2748 33.0788 18.4221 32.672 18.7308C32.2791 19.0254 32.0827 19.4604 32.0827 20.0356C32.0827 20.5266 32.237 20.9195 32.5457 21.2141C32.8544 21.4947 33.2753 21.7332 33.8084 21.9296C34.3415 22.1261 34.9518 22.3365 35.6393 22.561C36.3689 22.8135 37.0353 23.1081 37.6386 23.4449C38.2419 23.7816 38.7259 24.2305 39.0907 24.7917C39.4555 25.3389 39.6378 26.0474 39.6378 26.9173C39.6378 27.6889 39.4414 28.4045 39.0486 29.0639C38.6558 29.7233 38.0735 30.2564 37.3019 30.6633C36.5302 31.0561 35.5832 31.2525 34.4608 31.2525ZM45.8394 31.2525C44.5346 31.2525 43.5244 30.8457 42.8089 30.0319C42.1074 29.2182 41.7566 28.0256 41.7566 26.4543V20.5617H44.4294V26.2018C44.4294 27.0997 44.6117 27.7871 44.9765 28.2642C45.3413 28.7412 45.9165 28.9797 46.7022 28.9797C47.4458 28.9797 48.0561 28.7131 48.5331 28.18C49.0242 27.6468 49.2697 26.9033 49.2697 25.9492V20.5617H51.9634V31H49.5854L49.3749 29.2322C49.0522 29.8495 48.5822 30.3406 47.9649 30.7054C47.3616 31.0701 46.6531 31.2525 45.8394 31.2525ZM54.7287 35.6299V20.5617H57.1278L57.4225 22.0559C57.7592 21.5929 58.2011 21.186 58.7483 20.8353C59.3095 20.4845 60.032 20.3092 60.9159 20.3092C61.898 20.3092 62.7749 20.5477 63.5465 21.0247C64.3182 21.5017 64.9285 22.1541 65.3774 22.9819C65.8264 23.8096 66.0509 24.7497 66.0509 25.8019C66.0509 26.8541 65.8264 27.7942 65.3774 28.6219C64.9285 29.4357 64.3182 30.081 63.5465 30.5581C62.7749 31.021 61.898 31.2525 60.9159 31.2525C60.1302 31.2525 59.4428 31.1052 58.8535 30.8106C58.2643 30.516 57.7872 30.1021 57.4225 29.5689V35.6299H54.7287ZM60.3477 28.8955C61.2035 28.8955 61.912 28.6079 62.4732 28.0327C63.0344 27.4574 63.315 26.7138 63.315 25.8019C63.315 24.89 63.0344 24.1394 62.4732 23.5501C61.912 22.9608 61.2035 22.6662 60.3477 22.6662C59.4779 22.6662 58.7623 22.9608 58.2011 23.5501C57.654 24.1253 57.3804 24.8689 57.3804 25.7809C57.3804 26.6928 57.654 27.4434 58.2011 28.0327C58.7623 28.6079 59.4779 28.8955 60.3477 28.8955ZM69.3354 26.4122L69.2512 22.9398H70.2193C70.9348 22.9398 71.5872 22.8767 72.1764 22.7504C72.7657 22.6241 73.2357 22.3786 73.5865 22.0138C73.9372 21.649 74.1126 21.1159 74.1126 20.4144C74.1126 19.741 73.9091 19.2148 73.5023 18.836C73.0954 18.4432 72.5553 18.2468 71.8818 18.2468C71.1803 18.2468 70.6331 18.4432 70.2403 18.836C69.8475 19.2148 69.6511 19.7339 69.6511 20.3934H67.1046C67.0906 19.5516 67.273 18.801 67.6518 18.1415C68.0306 17.4821 68.5778 16.963 69.2933 16.5842C70.0228 16.2054 70.8927 16.016 71.9029 16.016C72.8429 16.016 73.6706 16.1914 74.3862 16.5421C75.1157 16.8929 75.6839 17.398 76.0908 18.0574C76.5117 18.7027 76.7222 19.4954 76.7222 20.4354C76.7222 21.4035 76.5047 22.2032 76.0698 22.8346C75.6489 23.4659 75.0666 23.9359 74.323 24.2446C73.5935 24.5532 72.7447 24.7146 71.7766 24.7286L71.7135 26.4122H69.3354ZM70.5349 31.1473C70.0439 31.1473 69.637 30.993 69.3143 30.6843C69.0057 30.3757 68.8513 30.0039 68.8513 29.5689C68.8513 29.12 69.0057 28.7412 69.3143 28.4325C69.637 28.1239 70.0439 27.9695 70.5349 27.9695C71.026 27.9695 71.4258 28.1239 71.7345 28.4325C72.0432 28.7412 72.1975 29.12 72.1975 29.5689C72.1975 30.0039 72.0432 30.3757 71.7345 30.6843C71.4258 30.993 71.026 31.1473 70.5349 31.1473ZM79.4863 26.3491L79.1916 16.2685H82.0748L81.7591 26.3491H79.4863ZM80.6858 31.1473C80.1808 31.1473 79.7669 30.993 79.4442 30.6843C79.1355 30.3757 78.9812 30.0039 78.9812 29.5689C78.9812 29.12 79.1355 28.7412 79.4442 28.4325C79.7669 28.1239 80.1808 27.9695 80.6858 27.9695C81.1629 27.9695 81.5557 28.1239 81.8643 28.4325C82.187 28.7412 82.3484 29.12 82.3484 29.5689C82.3484 30.0039 82.187 30.3757 81.8643 30.6843C81.5557 30.993 81.1629 31.1473 80.6858 31.1473Z" fill="#FFF0DA"/>
</svg>
