<svg width="297" height="152" viewBox="0 0 297 152" fill="none" xmlns="http://www.w3.org/2000/svg">
<path d="M66.5513 60.4669C66.5513 61.0325 66.4776 61.635 66.33 62.2744C66.2071 62.9138 65.9366 63.5163 65.5185 64.0819C65.125 64.6229 64.5594 65.0778 63.8217 65.4467C63.0839 65.8156 62.1249 66 60.9445 66H44.7141C43.5583 66 42.6115 65.8893 41.8737 65.668C41.1606 65.4467 40.595 65.127 40.1769 64.7089C39.7589 64.2909 39.4761 63.7622 39.3285 63.1228C39.181 62.4834 39.1072 61.7334 39.1072 60.8727V19.4482C39.1072 18.0465 39.267 16.9276 39.5867 16.0915C39.9064 15.2307 40.3613 14.5791 40.9515 14.1364C41.5417 13.6692 42.2426 13.3741 43.0541 13.2511C43.8902 13.1036 44.8124 13.0298 45.8207 13.0298H80.089C81.2694 13.0298 81.8596 13.6446 81.8596 14.8742V18.2678C81.8596 18.7596 81.712 19.0793 81.4169 19.2269C81.1218 19.3744 80.7653 19.4482 80.3472 19.4482C80.1013 19.4482 79.7201 19.4113 79.2037 19.3375C78.6873 19.2638 78.0848 19.1777 77.3962 19.0793C76.7077 18.9564 75.9576 18.8211 75.1461 18.6736C74.3592 18.5014 73.5599 18.3416 72.7484 18.194C70.8549 17.8252 68.7892 17.3948 66.5513 16.903V26.2724H80.2734C80.7899 26.2724 81.0481 26.5306 81.0481 27.047V30.7357C81.0481 31.2767 80.7899 31.5472 80.2734 31.5472H66.5513V60.4669ZM126.973 46.9293C126.973 49.7327 126.702 52.1918 126.161 54.3067C125.62 56.397 124.87 58.2045 123.911 59.7292C122.952 61.2538 121.821 62.508 120.517 63.4917C119.214 64.4753 117.788 65.2623 116.239 65.8525C114.714 66.4426 113.091 66.8484 111.369 67.0697C109.673 67.3156 107.951 67.4386 106.205 67.4386C104.533 67.4386 102.861 67.3279 101.189 67.1066C99.5409 66.9099 97.967 66.541 96.467 66C94.9915 65.459 93.6143 64.7089 92.3356 63.7499C91.0568 62.7908 89.9502 61.5489 89.0157 60.0243C88.0812 58.4996 87.3435 56.6675 86.8025 54.528C86.2861 52.3886 86.0278 49.8556 86.0278 46.9293V18.194C86.0278 17.3333 86.1016 16.5833 86.2492 15.9439C86.3967 15.3045 86.6795 14.7758 87.0976 14.3577C87.5156 13.9151 88.0935 13.5831 88.8313 13.3618C89.569 13.1405 90.5281 13.0298 91.7085 13.0298H108.16C109.587 13.0298 110.669 13.2388 111.406 13.6569C112.169 14.0749 112.697 14.6037 112.992 15.243C113.312 15.8578 113.484 16.5218 113.509 17.235C113.533 17.9235 113.546 18.5629 113.546 19.1531V57.0364C113.546 57.4053 113.644 57.6758 113.841 57.8479C114.062 57.9955 114.271 58.0692 114.468 58.0692C115.353 58.0692 116.128 57.8356 116.792 57.3684C117.456 56.8765 118.009 56.2126 118.452 55.3765C118.894 54.5403 119.226 53.5567 119.448 52.4255C119.694 51.2943 119.817 50.077 119.817 48.7736V14.7635C119.817 14.3455 119.903 13.952 120.075 13.5831C120.272 13.2142 120.69 13.0298 121.329 13.0298H125.165C125.387 13.0298 125.608 13.0421 125.829 13.0667C126.051 13.0913 126.247 13.1651 126.419 13.288C126.592 13.3864 126.727 13.5585 126.825 13.8044C126.924 14.0258 126.973 14.3455 126.973 14.7635V46.9293ZM176.07 13.0298C176.537 13.0298 176.955 13.1774 177.324 13.4725C177.693 13.7676 177.877 14.3332 177.877 15.1693V63.2703C177.877 65.0901 177.017 66 175.295 66H162.495C161.684 66 161.007 65.8402 160.466 65.5205C159.95 65.2008 159.483 64.8319 159.065 64.4138L140.178 44.6791C140.4 47.876 140.621 50.8147 140.842 53.4952C140.916 54.651 141.002 55.7945 141.101 56.9257C141.199 58.0569 141.285 59.1144 141.359 60.098C141.433 61.0817 141.494 61.9424 141.543 62.6801C141.617 63.4179 141.666 63.9466 141.691 64.2663C141.74 64.6844 141.666 65.0778 141.469 65.4467C141.297 65.8156 140.879 66 140.215 66H135.568C135.125 66 134.707 65.8647 134.313 65.5942C133.944 65.2991 133.76 64.7335 133.76 63.8974V15.7595C133.76 13.9397 134.768 13.0298 136.785 13.0298H149.253C150.187 13.0298 150.962 13.2265 151.577 13.62C152.216 14.0135 152.855 14.5299 153.495 15.1693L171.459 32.9858C171.213 30.0595 170.992 27.3544 170.795 24.8706C170.697 23.8132 170.598 22.7558 170.5 21.6983C170.426 20.6409 170.352 19.6572 170.278 18.7473C170.205 17.8129 170.131 17.0013 170.057 16.3128C170.008 15.6242 169.971 15.1078 169.947 14.7635C169.897 14.37 169.971 13.9889 170.168 13.62C170.389 13.2265 170.881 13.0298 171.643 13.0298H176.07ZM184.665 18.194C184.665 17.3333 184.738 16.5833 184.886 15.9439C185.033 15.3045 185.316 14.7758 185.734 14.3577C186.152 13.9151 186.73 13.5831 187.468 13.3618C188.206 13.1405 189.165 13.0298 190.345 13.0298H206.797C208.076 13.0298 209.072 13.2019 209.785 13.5462C210.498 13.8659 211.027 14.284 211.371 14.8004C211.74 15.3168 211.961 15.8947 212.035 16.5341C212.133 17.1489 212.182 17.7391 212.182 18.3047V22.6574L221.404 13.6938C221.749 13.3495 222.056 13.0913 222.327 12.9191C222.597 12.7224 222.868 12.624 223.138 12.624C223.384 12.624 223.593 12.6855 223.765 12.8085C223.962 12.9314 224.171 13.1036 224.392 13.3249L226.458 15.5013C226.63 15.698 226.765 15.8824 226.864 16.0546C226.962 16.2021 227.011 16.3743 227.011 16.571C227.011 17.0628 226.716 17.5424 226.126 18.0096L214.838 26.8257C218.33 27.1454 220.876 28.1536 222.474 29.8504C224.073 31.5472 224.872 33.9818 224.872 37.1541V64.2663C224.872 64.6844 224.81 65.0163 224.687 65.2623C224.589 65.4836 224.454 65.6557 224.282 65.7787C224.134 65.877 223.95 65.9385 223.728 65.9631C223.507 65.9877 223.286 66 223.064 66H219.966C219.326 66 218.908 65.8156 218.712 65.4467C218.539 65.0778 218.453 64.6844 218.453 64.2663V36.7484C218.453 35.6171 218.343 34.6827 218.121 33.9449C217.925 33.2072 217.58 32.617 217.089 32.1743C216.597 31.7071 215.945 31.3751 215.133 31.1784C214.347 30.957 213.363 30.8218 212.182 30.7726V60.0243C212.182 60.5899 212.133 61.2169 212.035 61.9055C211.937 62.5941 211.691 63.2457 211.297 63.8605C210.904 64.4507 210.301 64.9549 209.49 65.3729C208.678 65.791 207.559 66 206.133 66H190.345C189.165 66 188.206 65.8893 187.468 65.668C186.73 65.4467 186.152 65.127 185.734 64.7089C185.316 64.2909 185.033 63.7622 184.886 63.1228C184.738 62.4834 184.665 61.7334 184.665 60.8727V18.194ZM237.635 37.9656L228.265 17.3456C228.118 17.0013 228.019 16.6939 227.97 16.4234C227.921 16.1529 227.896 15.8824 227.896 15.6119C227.896 14.7512 228.167 14.1118 228.708 13.6938C229.249 13.2511 229.815 13.0298 230.405 13.0298H250.545C251.16 13.0298 251.689 13.1159 252.131 13.288C252.574 13.4356 252.943 13.62 253.238 13.8413C253.533 14.0627 253.755 14.3086 253.902 14.5791C254.074 14.825 254.197 15.0463 254.271 15.243L260.763 33.0596L266.665 16.0546C266.813 15.6365 266.948 15.243 267.071 14.8742C267.218 14.5053 267.378 14.1856 267.55 13.9151C267.747 13.6446 267.981 13.4356 268.251 13.288C268.522 13.1159 268.878 13.0298 269.321 13.0298H272.715C273.059 13.0298 273.354 13.1036 273.6 13.2511C273.846 13.3987 273.969 13.6446 273.969 13.9889C273.969 14.4561 273.821 15.0709 273.526 15.8332L265.153 37.1541V60.8358C265.153 61.6965 265.067 62.4465 264.894 63.0859C264.722 63.7253 264.427 64.2663 264.009 64.7089C263.616 65.127 263.075 65.4467 262.386 65.668C261.722 65.8893 260.874 66 259.841 66H242.43C241.471 66 240.684 65.8893 240.069 65.668C239.455 65.4467 238.963 65.127 238.594 64.7089C238.25 64.2909 238.004 63.7622 237.856 63.1228C237.709 62.4834 237.635 61.7334 237.635 60.8727V37.9656ZM15.8313 94.194C15.8313 93.3333 15.9051 92.5833 16.0526 91.9439C16.2002 91.3045 16.483 90.7758 16.901 90.3577C17.3191 89.9151 17.897 89.5831 18.6347 89.3618C19.3725 89.1405 20.3315 89.0298 21.5119 89.0298H37.9637C39.39 89.0298 40.472 89.2388 41.2098 89.6569C41.9721 90.0749 42.5008 90.6037 42.7959 91.243C43.1156 91.8578 43.2877 92.5218 43.3123 93.235C43.3369 93.9235 43.3492 94.5629 43.3492 95.1531V136.946C45.046 136.701 46.6199 136.479 48.0708 136.282C48.6856 136.209 49.3004 136.135 49.9152 136.061C50.5546 135.963 51.1325 135.877 51.6489 135.803C52.1899 135.729 52.6694 135.68 53.0875 135.655C53.5055 135.606 53.8129 135.582 54.0097 135.582C54.4277 135.582 54.7597 135.668 55.0056 135.84C55.2761 135.987 55.4114 136.307 55.4114 136.799V140.193C55.4114 140.635 55.2146 141.053 54.8212 141.447C54.4523 141.816 53.8498 142 53.0137 142H21.4382C20.2824 142 19.3356 141.889 18.5978 141.668C17.8847 141.447 17.3191 141.127 16.901 140.709C16.483 140.291 16.2002 139.762 16.0526 139.123C15.9051 138.483 15.8313 137.733 15.8313 136.873V94.194ZM59.5796 94.194C59.5796 93.3333 59.6534 92.5833 59.801 91.9439C59.9485 91.3045 60.2313 90.7758 60.6494 90.3577C61.0674 89.9151 61.6453 89.5831 62.3831 89.3618C63.1208 89.1405 64.0799 89.0298 65.2603 89.0298H81.712C83.1384 89.0298 84.2204 89.2388 84.9581 89.6569C85.7205 90.0749 86.2492 90.6037 86.5443 91.243C86.864 91.8578 87.0361 92.5218 87.0607 93.235C87.0853 93.9235 87.0976 94.5629 87.0976 95.1531V136.024C87.0976 136.59 87.0484 137.217 86.95 137.906C86.8517 138.594 86.6058 139.246 86.2123 139.861C85.8188 140.451 85.2163 140.955 84.4048 141.373C83.5933 141.791 82.4744 142 81.0481 142H65.2603C64.0799 142 63.1208 141.889 62.3831 141.668C61.6453 141.447 61.0674 141.127 60.6494 140.709C60.2313 140.291 59.9485 139.762 59.801 139.123C59.6534 138.483 59.5796 137.733 59.5796 136.873V94.194ZM115.575 89.0298C116.017 89.0298 116.398 89.0913 116.718 89.2142C117.038 89.3126 117.321 89.497 117.567 89.7676C117.837 90.0381 118.083 90.3946 118.304 90.8373C118.526 91.2799 118.759 91.8209 119.005 92.4603L135.936 137.684C136.059 138.028 136.145 138.336 136.195 138.606C136.244 138.877 136.268 139.147 136.268 139.418C136.268 140.303 135.998 140.955 135.457 141.373C134.94 141.791 134.387 142 133.797 142H112.882C112.242 142 111.701 141.926 111.259 141.779C110.841 141.607 110.484 141.41 110.189 141.188C109.894 140.967 109.66 140.734 109.488 140.488C109.341 140.242 109.242 140.02 109.193 139.824L108.787 138.533H98.422L98.1638 139.639C98.09 140.008 98.0039 140.34 97.9056 140.635C97.8072 140.906 97.6843 141.152 97.5367 141.373C97.3892 141.57 97.1801 141.729 96.9096 141.852C96.6637 141.951 96.3317 142 95.9137 142H92.1143C91.3273 142 90.9339 141.693 90.9339 141.078C90.9339 140.856 90.9708 140.598 91.0445 140.303C91.1429 139.983 91.2659 139.615 91.4134 139.197L106.832 92.5341C107.201 91.3783 107.619 90.5176 108.086 89.952C108.554 89.3864 109.218 89.079 110.078 89.0298H115.575ZM99.5655 133.995H107.533L103.439 119.573L99.5655 133.995ZM171.791 118.65L163.122 134.623C162.753 135.311 162.311 135.889 161.794 136.356C161.278 136.799 160.565 137.02 159.655 137.02C158.819 137.02 158.118 136.787 157.552 136.319C157.011 135.852 156.556 135.299 156.188 134.659L147.039 118.945C147.187 122.265 147.322 125.327 147.445 128.13C147.494 129.335 147.544 130.54 147.593 131.745C147.642 132.95 147.691 134.069 147.74 135.102C147.79 136.135 147.826 137.057 147.851 137.869C147.9 138.656 147.937 139.233 147.962 139.602C147.986 139.971 147.974 140.303 147.925 140.598C147.9 140.893 147.814 141.152 147.667 141.373C147.519 141.57 147.31 141.729 147.039 141.852C146.769 141.951 146.4 142 145.933 142H141.875C141.433 142 141.015 141.865 140.621 141.594C140.252 141.299 140.068 140.734 140.068 139.897V92.9767C140.068 92.5095 140.129 92.0423 140.252 91.575C140.4 91.1078 140.633 90.6897 140.953 90.3209C141.297 89.9274 141.74 89.62 142.281 89.3987C142.822 89.1528 143.486 89.0298 144.273 89.0298H156.151C157.11 89.0298 157.934 89.2019 158.622 89.5462C159.311 89.8659 159.901 90.4069 160.393 91.1693L170.315 106.92L176.955 94.194C177.349 93.4317 177.73 92.7431 178.099 92.1283C178.467 91.489 178.898 90.9479 179.39 90.5053C179.906 90.0381 180.533 89.6815 181.271 89.4356C182.033 89.1651 183.005 89.0298 184.185 89.0298H193.997C194.932 89.0298 195.731 89.1528 196.395 89.3987C197.083 89.6446 197.637 89.9766 198.055 90.3946C198.497 90.8127 198.817 91.3045 199.014 91.8701C199.21 92.4357 199.309 93.0505 199.309 93.7145V136.873C199.309 137.635 199.247 138.336 199.124 138.975C199.001 139.59 198.743 140.131 198.35 140.598C197.981 141.041 197.44 141.385 196.727 141.631C196.038 141.877 195.128 142 193.997 142H176.955C175.947 142 175.111 141.889 174.447 141.668C173.783 141.447 173.254 141.127 172.861 140.709C172.467 140.291 172.184 139.762 172.012 139.123C171.865 138.483 171.791 137.733 171.791 136.873V118.65ZM227.712 89.0298C228.155 89.0298 228.536 89.0913 228.856 89.2142C229.175 89.3126 229.458 89.497 229.704 89.7676C229.974 90.0381 230.22 90.3946 230.442 90.8373C230.663 91.2799 230.897 91.8209 231.143 92.4603L248.074 137.684C248.197 138.028 248.283 138.336 248.332 138.606C248.381 138.877 248.406 139.147 248.406 139.418C248.406 140.303 248.135 140.955 247.594 141.373C247.078 141.791 246.525 142 245.934 142H225.019C224.38 142 223.839 141.926 223.396 141.779C222.978 141.607 222.622 141.41 222.327 141.188C222.031 140.967 221.798 140.734 221.626 140.488C221.478 140.242 221.38 140.02 221.331 139.824L220.925 138.533H210.559L210.301 139.639C210.227 140.008 210.141 140.34 210.043 140.635C209.945 140.906 209.822 141.152 209.674 141.373C209.527 141.57 209.318 141.729 209.047 141.852C208.801 141.951 208.469 142 208.051 142H204.252C203.465 142 203.071 141.693 203.071 141.078C203.071 140.856 203.108 140.598 203.182 140.303C203.28 139.983 203.403 139.615 203.551 139.197L218.97 92.5341C219.339 91.3783 219.757 90.5176 220.224 89.952C220.691 89.3864 221.355 89.079 222.216 89.0298H227.712ZM211.703 133.995H219.671L215.576 119.573L211.703 133.995ZM260.837 101.719C261.107 99.0386 261.833 96.8007 263.013 95.0056C264.194 93.2104 265.657 91.7841 267.403 90.7266C269.149 89.6446 271.092 88.8823 273.231 88.4396C275.37 87.997 277.535 87.7756 279.723 87.7756C281.518 87.7756 283.277 87.8494 284.998 87.997C286.719 88.1445 288.306 88.3167 289.757 88.5134C291.207 88.7101 292.462 88.9068 293.519 89.1036C294.576 89.3003 295.351 89.4479 295.843 89.5462C296.138 89.62 296.286 89.7553 296.286 89.952C296.286 90.0012 296.261 90.1487 296.212 90.3946L295.659 93.0505C295.609 93.2227 295.536 93.3333 295.437 93.3825C295.363 93.4071 295.29 93.4194 295.216 93.4194C294.134 93.4194 293.199 93.6038 292.412 93.9727C291.625 94.3416 290.974 94.858 290.457 95.522C289.941 96.1859 289.548 96.9729 289.277 97.8828C289.006 98.7927 288.822 99.7763 288.724 100.834L286.51 127.651C286.314 129.815 285.76 131.856 284.851 133.774C283.941 135.692 282.674 137.364 281.051 138.791C279.428 140.217 277.436 141.348 275.075 142.184C272.715 143.021 270.01 143.439 266.96 143.439C264.919 143.439 262.952 143.34 261.058 143.144C259.165 142.947 257.443 142.713 255.894 142.443C254.345 142.172 253.004 141.914 251.873 141.668C250.767 141.398 249.967 141.201 249.476 141.078C249.18 141.004 249.033 140.869 249.033 140.672C249.033 140.647 249.058 140.512 249.107 140.266L249.734 137.463C249.783 137.291 249.844 137.192 249.918 137.168C250.017 137.119 250.103 137.094 250.176 137.094C251.258 137.094 252.254 136.934 253.164 136.614C254.099 136.295 254.91 135.766 255.599 135.028C256.287 134.291 256.853 133.331 257.296 132.151C257.763 130.971 258.083 129.52 258.255 127.798L260.837 101.719Z" fill="#FFAA21"/>
<path d="M54.5606 60.467C54.5606 61.0326 54.4869 61.6351 54.3393 62.2745C54.2163 62.9139 53.9458 63.5164 53.5278 64.082C53.1343 64.623 52.5687 65.0779 51.831 65.4468C51.0932 65.8157 50.1341 66.0001 48.9538 66.0001H32.7233C31.5675 66.0001 30.6208 65.8894 29.883 65.6681C29.1699 65.4468 28.6042 65.1271 28.1862 64.709C27.7681 64.291 27.4853 63.7623 27.3378 63.1229C27.1902 62.4835 27.1165 61.7335 27.1165 60.8728V19.4483C27.1165 18.0466 27.2763 16.9277 27.596 16.0916C27.9157 15.2308 28.3706 14.5792 28.9608 14.1365C29.551 13.6693 30.2519 13.3742 31.0634 13.2512C31.8995 13.1037 32.8217 13.0299 33.83 13.0299H68.0983C69.2787 13.0299 69.8689 13.6447 69.8689 14.8743V18.2679C69.8689 18.7597 69.7213 19.0794 69.4262 19.227C69.1311 19.3745 68.7745 19.4483 68.3565 19.4483C68.1106 19.4483 67.7294 19.4114 67.213 19.3376C66.6966 19.2639 66.0941 19.1778 65.4055 19.0794C64.7169 18.9565 63.9669 18.8212 63.1554 18.6737C62.3684 18.5015 61.5692 18.3417 60.7577 18.1941C58.8641 17.8253 56.7985 17.3949 54.5606 16.9031V26.2725H68.2827C68.7991 26.2725 69.0573 26.5307 69.0573 27.0471V30.7358C69.0573 31.2768 68.7991 31.5473 68.2827 31.5473H54.5606V60.467ZM114.982 46.9294C114.982 49.7328 114.712 52.1919 114.171 54.3068C113.63 56.3971 112.879 58.2046 111.92 59.7293C110.961 61.2539 109.83 62.5081 108.527 63.4918C107.223 64.4754 105.797 65.2624 104.248 65.8525C102.723 66.4427 101.1 66.8485 99.3787 67.0698C97.6819 67.3157 95.9605 67.4387 94.2145 67.4387C92.5423 67.4387 90.87 67.328 89.1978 67.1067C87.5502 66.91 85.9763 66.5411 84.4762 66.0001C83.0007 65.4591 81.6236 64.709 80.3449 63.75C79.0661 62.7909 77.9595 61.549 77.025 60.0244C76.0905 58.4997 75.3528 56.6676 74.8118 54.5281C74.2953 52.3887 74.0371 49.8557 74.0371 46.9294V18.1941C74.0371 17.3334 74.1109 16.5834 74.2585 15.944C74.406 15.3046 74.6888 14.7759 75.1069 14.3578C75.5249 13.9152 76.1028 13.5832 76.8406 13.3619C77.5783 13.1406 78.5374 13.0299 79.7178 13.0299H96.1695C97.5958 13.0299 98.6779 13.2389 99.4156 13.657C100.178 14.075 100.707 14.6038 101.002 15.2431C101.321 15.8579 101.494 16.5219 101.518 17.2351C101.543 17.9236 101.555 18.563 101.555 19.1532V57.0365C101.555 57.4054 101.653 57.6759 101.85 57.848C102.071 57.9956 102.281 58.0693 102.477 58.0693C103.363 58.0693 104.137 57.8357 104.801 57.3685C105.465 56.8766 106.018 56.2127 106.461 55.3766C106.904 54.5404 107.236 53.5568 107.457 52.4256C107.703 51.2944 107.826 50.0771 107.826 48.7737V14.7636C107.826 14.3456 107.912 13.9521 108.084 13.5832C108.281 13.2143 108.699 13.0299 109.338 13.0299H113.175C113.396 13.0299 113.617 13.0422 113.839 13.0668C114.06 13.0914 114.257 13.1652 114.429 13.2881C114.601 13.3865 114.736 13.5586 114.835 13.8045C114.933 14.0259 114.982 14.3456 114.982 14.7636V46.9294ZM164.079 13.0299C164.546 13.0299 164.964 13.1775 165.333 13.4726C165.702 13.7677 165.887 14.3333 165.887 15.1694V63.2704C165.887 65.0902 165.026 66.0001 163.304 66.0001H150.505C149.693 66.0001 149.017 65.8403 148.476 65.5206C147.959 65.2009 147.492 64.832 147.074 64.4139L128.188 44.6792C128.409 47.8761 128.63 50.8148 128.852 53.4953C128.925 54.6511 129.012 55.7946 129.11 56.9258C129.208 58.057 129.294 59.1145 129.368 60.0981C129.442 61.0818 129.503 61.9425 129.553 62.6802C129.626 63.418 129.676 63.9467 129.7 64.2664C129.749 64.6845 129.676 65.0779 129.479 65.4468C129.307 65.8157 128.889 66.0001 128.225 66.0001H123.577C123.134 66.0001 122.716 65.8648 122.323 65.5943C121.954 65.2992 121.769 64.7336 121.769 63.8975V15.7596C121.769 13.9398 122.778 13.0299 124.794 13.0299H137.262C138.196 13.0299 138.971 13.2266 139.586 13.6201C140.225 14.0136 140.865 14.53 141.504 15.1694L159.468 32.9859C159.222 30.0596 159.001 27.3545 158.804 24.8707C158.706 23.8133 158.607 22.7559 158.509 21.6984C158.435 20.641 158.362 19.6573 158.288 18.7474C158.214 17.813 158.14 17.0014 158.066 16.3129C158.017 15.6243 157.98 15.1079 157.956 14.7636C157.907 14.3701 157.98 13.989 158.177 13.6201C158.398 13.2266 158.89 13.0299 159.653 13.0299H164.079ZM172.674 18.1941C172.674 17.3334 172.748 16.5834 172.895 15.944C173.043 15.3046 173.326 14.7759 173.744 14.3578C174.162 13.9152 174.74 13.5832 175.477 13.3619C176.215 13.1406 177.174 13.0299 178.354 13.0299H194.806C196.085 13.0299 197.081 13.202 197.794 13.5463C198.507 13.866 199.036 14.2841 199.38 14.8005C199.749 15.3169 199.97 15.8948 200.044 16.5342C200.143 17.149 200.192 17.7392 200.192 18.3048V22.6575L209.414 13.6939C209.758 13.3496 210.065 13.0914 210.336 12.9192C210.606 12.7225 210.877 12.6241 211.147 12.6241C211.393 12.6241 211.602 12.6856 211.774 12.8086C211.971 12.9315 212.18 13.1037 212.401 13.325L214.467 15.5014C214.639 15.6981 214.775 15.8825 214.873 16.0547C214.971 16.2022 215.02 16.3744 215.02 16.5711C215.02 17.0629 214.725 17.5425 214.135 18.0097L202.848 26.8258C206.34 27.1455 208.885 28.1537 210.483 29.8505C212.082 31.5473 212.881 33.9819 212.881 37.1542V64.2664C212.881 64.6845 212.82 65.0164 212.697 65.2624C212.598 65.4837 212.463 65.6558 212.291 65.7788C212.143 65.8771 211.959 65.9386 211.738 65.9632C211.516 65.9878 211.295 66.0001 211.074 66.0001H207.975C207.336 66.0001 206.918 65.8157 206.721 65.4468C206.549 65.0779 206.463 64.6845 206.463 64.2664V36.7485C206.463 35.6172 206.352 34.6828 206.131 33.945C205.934 33.2073 205.59 32.6171 205.098 32.1744C204.606 31.7072 203.954 31.3752 203.143 31.1785C202.356 30.9571 201.372 30.8219 200.192 30.7727V60.0244C200.192 60.59 200.143 61.217 200.044 61.9056C199.946 62.5942 199.7 63.2458 199.306 63.8606C198.913 64.4508 198.311 64.955 197.499 65.373C196.687 65.7911 195.569 66.0001 194.142 66.0001H178.354C177.174 66.0001 176.215 65.8894 175.477 65.6681C174.74 65.4468 174.162 65.1271 173.744 64.709C173.326 64.291 173.043 63.7623 172.895 63.1229C172.748 62.4835 172.674 61.7335 172.674 60.8728V18.1941ZM225.644 37.9657L216.275 17.3457C216.127 17.0014 216.029 16.694 215.98 16.4235C215.93 16.153 215.906 15.8825 215.906 15.612C215.906 14.7513 216.176 14.1119 216.717 13.6939C217.258 13.2512 217.824 13.0299 218.414 13.0299H238.555C239.169 13.0299 239.698 13.116 240.141 13.2881C240.583 13.4357 240.952 13.6201 241.247 13.8414C241.542 14.0628 241.764 14.3087 241.911 14.5792C242.083 14.8251 242.206 15.0464 242.28 15.2431L248.772 33.0597L254.674 16.0547C254.822 15.6366 254.957 15.2431 255.08 14.8743C255.228 14.5054 255.388 14.1857 255.56 13.9152C255.756 13.6447 255.99 13.4357 256.261 13.2881C256.531 13.116 256.888 13.0299 257.33 13.0299H260.724C261.068 13.0299 261.363 13.1037 261.609 13.2512C261.855 13.3988 261.978 13.6447 261.978 13.989C261.978 14.4562 261.83 15.071 261.535 15.8333L253.162 37.1542V60.8359C253.162 61.6966 253.076 62.4466 252.904 63.086C252.732 63.7254 252.437 64.2664 252.018 64.709C251.625 65.1271 251.084 65.4468 250.395 65.6681C249.731 65.8894 248.883 66.0001 247.85 66.0001H230.439C229.48 66.0001 228.693 65.8894 228.079 65.6681C227.464 65.4468 226.972 65.1271 226.603 64.709C226.259 64.291 226.013 63.7623 225.865 63.1229C225.718 62.4835 225.644 61.7335 225.644 60.8728V37.9657ZM3.84056 94.1941C3.84056 93.3334 3.91434 92.5834 4.06189 91.944C4.20944 91.3046 4.49224 90.7759 4.9103 90.3578C5.32835 89.9152 5.90625 89.5832 6.644 89.3619C7.38175 89.1406 8.34082 89.0299 9.52121 89.0299H25.973C27.3993 89.0299 28.4813 89.2389 29.219 89.657C29.9814 90.075 30.5101 90.6038 30.8052 91.2431C31.1249 91.8579 31.297 92.5219 31.3216 93.2351C31.3462 93.9236 31.3585 94.563 31.3585 95.1532V136.947C33.0553 136.701 34.6292 136.479 36.0801 136.283C36.6949 136.209 37.3097 136.135 37.9244 136.061C38.5638 135.963 39.1417 135.877 39.6582 135.803C40.1992 135.729 40.6787 135.68 41.0968 135.655C41.5148 135.606 41.8222 135.582 42.0189 135.582C42.437 135.582 42.769 135.668 43.0149 135.84C43.2854 135.987 43.4207 136.307 43.4207 136.799V140.193C43.4207 140.635 43.2239 141.053 42.8305 141.447C42.4616 141.816 41.8591 142 41.023 142H9.44744C8.29163 142 7.34486 141.889 6.60711 141.668C5.89396 141.447 5.32835 141.127 4.9103 140.709C4.49224 140.291 4.20944 139.762 4.06189 139.123C3.91434 138.484 3.84056 137.733 3.84056 136.873V94.1941ZM47.5889 94.1941C47.5889 93.3334 47.6627 92.5834 47.8103 91.944C47.9578 91.3046 48.2406 90.7759 48.6587 90.3578C49.0767 89.9152 49.6546 89.5832 50.3924 89.3619C51.1301 89.1406 52.0892 89.0299 53.2696 89.0299H69.7213C71.1476 89.0299 72.2297 89.2389 72.9674 89.657C73.7297 90.075 74.2585 90.6038 74.5536 91.2431C74.8732 91.8579 75.0454 92.5219 75.07 93.2351C75.0946 93.9236 75.1069 94.563 75.1069 95.1532V136.024C75.1069 136.59 75.0577 137.217 74.9593 137.906C74.861 138.594 74.615 139.246 74.2216 139.861C73.8281 140.451 73.2256 140.955 72.4141 141.373C71.6026 141.791 70.4837 142 69.0573 142H53.2696C52.0892 142 51.1301 141.889 50.3924 141.668C49.6546 141.447 49.0767 141.127 48.6587 140.709C48.2406 140.291 47.9578 139.762 47.8103 139.123C47.6627 138.484 47.5889 137.733 47.5889 136.873V94.1941ZM103.584 89.0299C104.027 89.0299 104.408 89.0914 104.727 89.2143C105.047 89.3127 105.33 89.4971 105.576 89.7677C105.846 90.0382 106.092 90.3947 106.314 90.8374C106.535 91.28 106.768 91.821 107.014 92.4604L123.946 137.684C124.069 138.029 124.155 138.336 124.204 138.606C124.253 138.877 124.278 139.147 124.278 139.418C124.278 140.303 124.007 140.955 123.466 141.373C122.95 141.791 122.396 142 121.806 142H100.891C100.252 142 99.7107 141.926 99.2681 141.779C98.85 141.607 98.4934 141.41 98.1983 141.189C97.9032 140.967 97.6696 140.734 97.4975 140.488C97.3499 140.242 97.2516 140.02 97.2024 139.824L96.7966 138.533H86.4313L86.1731 139.639C86.0993 140.008 86.0132 140.34 85.9149 140.635C85.8165 140.906 85.6935 141.152 85.546 141.373C85.3984 141.57 85.1894 141.73 84.9189 141.853C84.673 141.951 84.341 142 83.9229 142H80.1235C79.3366 142 78.9432 141.693 78.9432 141.078C78.9432 140.857 78.98 140.598 79.0538 140.303C79.1522 139.984 79.2751 139.615 79.4227 139.197L94.8416 92.5342C95.2105 91.3784 95.6285 90.5177 96.0958 89.9521C96.563 89.3865 97.227 89.0791 98.0877 89.0299H103.584ZM87.5748 133.996H95.5424L91.448 119.573L87.5748 133.996ZM159.8 118.65L151.132 134.623C150.763 135.311 150.32 135.889 149.804 136.356C149.287 136.799 148.574 137.02 147.664 137.02C146.828 137.02 146.127 136.787 145.562 136.319C145.021 135.852 144.566 135.299 144.197 134.66L135.049 118.946C135.196 122.265 135.332 125.327 135.455 128.13C135.504 129.335 135.553 130.54 135.602 131.745C135.651 132.95 135.7 134.069 135.75 135.102C135.799 136.135 135.836 137.057 135.86 137.869C135.909 138.656 135.946 139.234 135.971 139.602C135.996 139.971 135.983 140.303 135.934 140.598C135.909 140.893 135.823 141.152 135.676 141.373C135.528 141.57 135.319 141.73 135.049 141.853C134.778 141.951 134.409 142 133.942 142H129.885C129.442 142 129.024 141.865 128.63 141.594C128.261 141.299 128.077 140.734 128.077 139.898V92.9768C128.077 92.5096 128.139 92.0424 128.261 91.5751C128.409 91.1079 128.643 90.6898 128.962 90.321C129.307 89.9275 129.749 89.6201 130.29 89.3988C130.831 89.1529 131.495 89.0299 132.282 89.0299H144.16C145.119 89.0299 145.943 89.202 146.631 89.5463C147.32 89.866 147.91 90.407 148.402 91.1694L158.325 106.92L164.964 94.1941C165.358 93.4318 165.739 92.7432 166.108 92.1284C166.477 91.4891 166.907 90.948 167.399 90.5054C167.915 90.0382 168.542 89.6816 169.28 89.4357C170.043 89.1652 171.014 89.0299 172.194 89.0299H182.006C182.941 89.0299 183.74 89.1529 184.404 89.3988C185.093 89.6447 185.646 89.9767 186.064 90.3947C186.507 90.8128 186.826 91.3046 187.023 91.8702C187.22 92.4358 187.318 93.0506 187.318 93.7146V136.873C187.318 137.635 187.257 138.336 187.134 138.975C187.011 139.59 186.752 140.131 186.359 140.598C185.99 141.041 185.449 141.385 184.736 141.631C184.047 141.877 183.138 142 182.006 142H164.964C163.956 142 163.12 141.889 162.456 141.668C161.792 141.447 161.263 141.127 160.87 140.709C160.476 140.291 160.194 139.762 160.021 139.123C159.874 138.484 159.8 137.733 159.8 136.873V118.65ZM215.721 89.0299C216.164 89.0299 216.545 89.0914 216.865 89.2143C217.185 89.3127 217.467 89.4971 217.713 89.7677C217.984 90.0382 218.23 90.3947 218.451 90.8374C218.672 91.28 218.906 91.821 219.152 92.4604L236.083 137.684C236.206 138.029 236.292 138.336 236.341 138.606C236.391 138.877 236.415 139.147 236.415 139.418C236.415 140.303 236.145 140.955 235.604 141.373C235.087 141.791 234.534 142 233.944 142H213.029C212.389 142 211.848 141.926 211.406 141.779C210.987 141.607 210.631 141.41 210.336 141.189C210.041 140.967 209.807 140.734 209.635 140.488C209.487 140.242 209.389 140.02 209.34 139.824L208.934 138.533H198.569L198.311 139.639C198.237 140.008 198.151 140.34 198.052 140.635C197.954 140.906 197.831 141.152 197.683 141.373C197.536 141.57 197.327 141.73 197.056 141.853C196.81 141.951 196.478 142 196.06 142H192.261C191.474 142 191.081 141.693 191.081 141.078C191.081 140.857 191.117 140.598 191.191 140.303C191.29 139.984 191.413 139.615 191.56 139.197L206.979 92.5342C207.348 91.3784 207.766 90.5177 208.233 89.9521C208.7 89.3865 209.364 89.0791 210.225 89.0299H215.721ZM199.712 133.996H207.68L203.585 119.573L199.712 133.996ZM248.846 101.719C249.117 99.0387 249.842 96.8008 251.023 95.0057C252.203 93.2105 253.666 91.7842 255.412 90.7267C257.158 89.6447 259.101 88.8824 261.24 88.4397C263.38 87.9971 265.544 87.7757 267.732 87.7757C269.528 87.7757 271.286 87.8495 273.007 87.9971C274.729 88.1446 276.315 88.3168 277.766 88.5135C279.217 88.7102 280.471 88.9069 281.528 89.1037C282.586 89.3004 283.36 89.448 283.852 89.5463C284.147 89.6201 284.295 89.7554 284.295 89.9521C284.295 90.0013 284.27 90.1488 284.221 90.3947L283.668 93.0506C283.619 93.2228 283.545 93.3334 283.446 93.3826C283.373 93.4072 283.299 93.4195 283.225 93.4195C282.143 93.4195 281.209 93.6039 280.422 93.9728C279.635 94.3417 278.983 94.8581 278.467 95.5221C277.95 96.186 277.557 96.973 277.286 97.8829C277.016 98.7927 276.831 99.7764 276.733 100.834L274.52 127.651C274.323 129.815 273.77 131.856 272.86 133.774C271.95 135.692 270.683 137.365 269.06 138.791C267.437 140.217 265.445 141.348 263.085 142.185C260.724 143.021 258.019 143.439 254.969 143.439C252.928 143.439 250.961 143.34 249.067 143.144C247.174 142.947 245.453 142.713 243.903 142.443C242.354 142.172 241.014 141.914 239.883 141.668C238.776 141.398 237.977 141.201 237.485 141.078C237.19 141.004 237.042 140.869 237.042 140.672C237.042 140.648 237.067 140.512 237.116 140.266L237.743 137.463C237.792 137.291 237.854 137.192 237.928 137.168C238.026 137.119 238.112 137.094 238.186 137.094C239.268 137.094 240.264 136.934 241.174 136.615C242.108 136.295 242.92 135.766 243.608 135.028C244.297 134.291 244.862 133.332 245.305 132.151C245.772 130.971 246.092 129.52 246.264 127.798L248.846 101.719Z" fill="#6AE4FF"/>
<path d="M59.8066 60.4669C59.8066 61.0325 59.7328 61.635 59.5853 62.2744C59.4623 62.9138 59.1918 63.5163 58.7738 64.0819C58.3803 64.6229 57.8147 65.0778 57.0769 65.4467C56.3392 65.8156 55.3801 66 54.1997 66H37.9693C36.8135 66 35.8667 65.8893 35.129 65.668C34.4158 65.4467 33.8502 65.127 33.4322 64.7089C33.0141 64.2909 32.7313 63.7622 32.5838 63.1228C32.4362 62.4834 32.3624 61.7334 32.3624 60.8727V19.4482C32.3624 18.0465 32.5223 16.9276 32.842 16.0915C33.1617 15.2307 33.6166 14.5791 34.2068 14.1364C34.797 13.6692 35.4979 13.3741 36.3094 13.2511C37.1455 13.1036 38.0677 13.0298 39.0759 13.0298H73.3442C74.5246 13.0298 75.1148 13.6446 75.1148 14.8742V18.2678C75.1148 18.7596 74.9673 19.0793 74.6722 19.2269C74.3771 19.3744 74.0205 19.4482 73.6025 19.4482C73.3565 19.4482 72.9754 19.4113 72.4589 19.3375C71.9425 19.2638 71.34 19.1777 70.6515 19.0793C69.9629 18.9564 69.2129 18.8211 68.4013 18.6736C67.6144 18.5014 66.8152 18.3416 66.0037 18.194C64.1101 17.8252 62.0444 17.3948 59.8066 16.903V26.2724H73.5287C74.0451 26.2724 74.3033 26.5306 74.3033 27.047V30.7357C74.3033 31.2767 74.0451 31.5472 73.5287 31.5472H59.8066V60.4669ZM120.228 46.9293C120.228 49.7327 119.958 52.1918 119.417 54.3067C118.875 56.397 118.125 58.2045 117.166 59.7292C116.207 61.2538 115.076 62.508 113.773 63.4917C112.469 64.4753 111.043 65.2623 109.494 65.8525C107.969 66.4426 106.346 66.8484 104.625 67.0697C102.928 67.3156 101.206 67.4386 99.4605 67.4386C97.7882 67.4386 96.116 67.3279 94.4438 67.1066C92.7962 66.9099 91.2223 66.541 89.7222 66C88.2467 65.459 86.8696 64.7089 85.5908 63.7499C84.3121 62.7908 83.2055 61.5489 82.271 60.0243C81.3365 58.4996 80.5987 56.6675 80.0577 54.528C79.5413 52.3886 79.2831 49.8556 79.2831 46.9293V18.194C79.2831 17.3333 79.3569 16.5833 79.5044 15.9439C79.652 15.3045 79.9348 14.7758 80.3528 14.3577C80.7709 13.9151 81.3488 13.5831 82.0865 13.3618C82.8243 13.1405 83.7834 13.0298 84.9637 13.0298H101.415C102.842 13.0298 103.924 13.2388 104.662 13.6569C105.424 14.0749 105.953 14.6037 106.248 15.243C106.567 15.8578 106.74 16.5218 106.764 17.235C106.789 17.9235 106.801 18.5629 106.801 19.1531V57.0364C106.801 57.4053 106.899 57.6758 107.096 57.8479C107.317 57.9955 107.526 58.0692 107.723 58.0692C108.609 58.0692 109.383 57.8356 110.047 57.3684C110.711 56.8765 111.264 56.2126 111.707 55.3765C112.15 54.5403 112.482 53.5567 112.703 52.4255C112.949 51.2943 113.072 50.077 113.072 48.7736V14.7635C113.072 14.3455 113.158 13.952 113.33 13.5831C113.527 13.2142 113.945 13.0298 114.584 13.0298H118.421C118.642 13.0298 118.863 13.0421 119.085 13.0667C119.306 13.0913 119.503 13.1651 119.675 13.288C119.847 13.3864 119.982 13.5585 120.08 13.8044C120.179 14.0258 120.228 14.3455 120.228 14.7635V46.9293ZM169.325 13.0298C169.792 13.0298 170.21 13.1774 170.579 13.4725C170.948 13.7676 171.133 14.3332 171.133 15.1693V63.2703C171.133 65.0901 170.272 66 168.55 66H155.751C154.939 66 154.263 65.8402 153.722 65.5205C153.205 65.2008 152.738 64.8319 152.32 64.4138L133.434 44.6791C133.655 47.876 133.876 50.8147 134.098 53.4952C134.171 54.651 134.258 55.7945 134.356 56.9257C134.454 58.0569 134.54 59.1144 134.614 60.098C134.688 61.0817 134.749 61.9424 134.799 62.6801C134.872 63.4179 134.921 63.9466 134.946 64.2663C134.995 64.6844 134.921 65.0778 134.725 65.4467C134.553 65.8156 134.135 66 133.471 66H128.823C128.38 66 127.962 65.8647 127.569 65.5942C127.2 65.2991 127.015 64.7335 127.015 63.8974V15.7595C127.015 13.9397 128.024 13.0298 130.04 13.0298H142.508C143.442 13.0298 144.217 13.2265 144.832 13.62C145.471 14.0135 146.111 14.5299 146.75 15.1693L164.714 32.9858C164.468 30.0595 164.247 27.3544 164.05 24.8706C163.952 23.8132 163.853 22.7558 163.755 21.6983C163.681 20.6409 163.608 19.6572 163.534 18.7473C163.46 17.8129 163.386 17.0013 163.312 16.3128C163.263 15.6242 163.226 15.1078 163.202 14.7635C163.153 14.37 163.226 13.9889 163.423 13.62C163.644 13.2265 164.136 13.0298 164.899 13.0298H169.325ZM177.92 18.194C177.92 17.3333 177.994 16.5833 178.141 15.9439C178.289 15.3045 178.571 14.7758 178.99 14.3577C179.408 13.9151 179.985 13.5831 180.723 13.3618C181.461 13.1405 182.42 13.0298 183.6 13.0298H200.052C201.331 13.0298 202.327 13.2019 203.04 13.5462C203.753 13.8659 204.282 14.284 204.626 14.8004C204.995 15.3168 205.216 15.8947 205.29 16.5341C205.389 17.1489 205.438 17.7391 205.438 18.3047V22.6574L214.66 13.6938C215.004 13.3495 215.311 13.0913 215.582 12.9191C215.852 12.7224 216.123 12.624 216.393 12.624C216.639 12.624 216.848 12.6855 217.02 12.8085C217.217 12.9314 217.426 13.1036 217.647 13.3249L219.713 15.5013C219.885 15.698 220.021 15.8824 220.119 16.0546C220.217 16.2021 220.266 16.3743 220.266 16.571C220.266 17.0628 219.971 17.5424 219.381 18.0096L208.094 26.8257C211.586 27.1454 214.131 28.1536 215.729 29.8504C217.328 31.5472 218.127 33.9818 218.127 37.1541V64.2663C218.127 64.6844 218.066 65.0163 217.943 65.2623C217.844 65.4836 217.709 65.6557 217.537 65.7787C217.389 65.877 217.205 65.9385 216.983 65.9631C216.762 65.9877 216.541 66 216.32 66H213.221C212.582 66 212.164 65.8156 211.967 65.4467C211.795 65.0778 211.709 64.6844 211.709 64.2663V36.7484C211.709 35.6171 211.598 34.6827 211.377 33.9449C211.18 33.2072 210.836 32.617 210.344 32.1743C209.852 31.7071 209.2 31.3751 208.389 31.1784C207.602 30.957 206.618 30.8218 205.438 30.7726V60.0243C205.438 60.5899 205.389 61.2169 205.29 61.9055C205.192 62.5941 204.946 63.2457 204.552 63.8605C204.159 64.4507 203.556 64.9549 202.745 65.3729C201.933 65.791 200.815 66 199.388 66H183.6C182.42 66 181.461 65.8893 180.723 65.668C179.985 65.4467 179.408 65.127 178.99 64.7089C178.571 64.2909 178.289 63.7622 178.141 63.1228C177.994 62.4834 177.92 61.7334 177.92 60.8727V18.194ZM230.89 37.9656L221.521 17.3456C221.373 17.0013 221.275 16.6939 221.226 16.4234C221.176 16.1529 221.152 15.8824 221.152 15.6119C221.152 14.7512 221.422 14.1118 221.963 13.6938C222.504 13.2511 223.07 13.0298 223.66 13.0298H243.801C244.415 13.0298 244.944 13.1159 245.387 13.288C245.829 13.4356 246.198 13.62 246.493 13.8413C246.788 14.0627 247.01 14.3086 247.157 14.5791C247.329 14.825 247.452 15.0463 247.526 15.243L254.018 33.0596L259.92 16.0546C260.068 15.6365 260.203 15.243 260.326 14.8742C260.474 14.5053 260.633 14.1856 260.806 13.9151C261.002 13.6446 261.236 13.4356 261.506 13.288C261.777 13.1159 262.134 13.0298 262.576 13.0298H265.97C266.314 13.0298 266.609 13.1036 266.855 13.2511C267.101 13.3987 267.224 13.6446 267.224 13.9889C267.224 14.4561 267.076 15.0709 266.781 15.8332L258.408 37.1541V60.8358C258.408 61.6965 258.322 62.4465 258.15 63.0859C257.978 63.7253 257.682 64.2663 257.264 64.7089C256.871 65.127 256.33 65.4467 255.641 65.668C254.977 65.8893 254.129 66 253.096 66H235.685C234.726 66 233.939 65.8893 233.325 65.668C232.71 65.4467 232.218 65.127 231.849 64.7089C231.505 64.2909 231.259 63.7622 231.111 63.1228C230.964 62.4834 230.89 61.7334 230.89 60.8727V37.9656ZM9.08654 94.194C9.08654 93.3333 9.16031 92.5833 9.30786 91.9439C9.45541 91.3045 9.73821 90.7758 10.1563 90.3577C10.5743 89.9151 11.1522 89.5831 11.89 89.3618C12.6277 89.1405 13.5868 89.0298 14.7672 89.0298H31.2189C32.6452 89.0298 33.7273 89.2388 34.465 89.6569C35.2274 90.0749 35.7561 90.6037 36.0512 91.243C36.3709 91.8578 36.543 92.5218 36.5676 93.235C36.5922 93.9235 36.6045 94.5629 36.6045 95.1531V136.946C38.3013 136.701 39.8752 136.479 41.3261 136.282C41.9408 136.209 42.5556 136.135 43.1704 136.061C43.8098 135.963 44.3877 135.877 44.9041 135.803C45.4451 135.729 45.9247 135.68 46.3427 135.655C46.7608 135.606 47.0682 135.582 47.2649 135.582C47.683 135.582 48.015 135.668 48.2609 135.84C48.5314 135.987 48.6666 136.307 48.6666 136.799V140.193C48.6666 140.635 48.4699 141.053 48.0764 141.447C47.7076 141.816 47.1051 142 46.269 142H14.6934C13.5376 142 12.5908 141.889 11.8531 141.668C11.1399 141.447 10.5743 141.127 10.1563 140.709C9.73821 140.291 9.45541 139.762 9.30786 139.123C9.16031 138.483 9.08654 137.733 9.08654 136.873V94.194ZM52.8349 94.194C52.8349 93.3333 52.9087 92.5833 53.0562 91.9439C53.2038 91.3045 53.4866 90.7758 53.9046 90.3577C54.3227 89.9151 54.9006 89.5831 55.6383 89.3618C56.3761 89.1405 57.3352 89.0298 58.5155 89.0298H74.9673C76.3936 89.0298 77.4756 89.2388 78.2134 89.6569C78.9757 90.0749 79.5044 90.6037 79.7995 91.243C80.1192 91.8578 80.2914 92.5218 80.316 93.235C80.3405 93.9235 80.3528 94.5629 80.3528 95.1531V136.024C80.3528 136.59 80.3037 137.217 80.2053 137.906C80.1069 138.594 79.861 139.246 79.4675 139.861C79.0741 140.451 78.4716 140.955 77.6601 141.373C76.8485 141.791 75.7296 142 74.3033 142H58.5155C57.3352 142 56.3761 141.889 55.6383 141.668C54.9006 141.447 54.3227 141.127 53.9046 140.709C53.4866 140.291 53.2038 139.762 53.0562 139.123C52.9087 138.483 52.8349 137.733 52.8349 136.873V94.194ZM108.83 89.0298C109.273 89.0298 109.654 89.0913 109.973 89.2142C110.293 89.3126 110.576 89.497 110.822 89.7676C111.092 90.0381 111.338 90.3946 111.56 90.8373C111.781 91.2799 112.014 91.8209 112.26 92.4603L129.192 137.684C129.315 138.028 129.401 138.336 129.45 138.606C129.499 138.877 129.524 139.147 129.524 139.418C129.524 140.303 129.253 140.955 128.712 141.373C128.196 141.791 127.642 142 127.052 142H106.137C105.498 142 104.957 141.926 104.514 141.779C104.096 141.607 103.739 141.41 103.444 141.188C103.149 140.967 102.916 140.734 102.743 140.488C102.596 140.242 102.498 140.02 102.448 139.824L102.043 138.533H91.6773L91.419 139.639C91.3453 140.008 91.2592 140.34 91.1608 140.635C91.0625 140.906 90.9395 141.152 90.792 141.373C90.6444 141.57 90.4354 141.729 90.1649 141.852C89.919 141.951 89.587 142 89.1689 142H85.3695C84.5826 142 84.1891 141.693 84.1891 141.078C84.1891 140.856 84.226 140.598 84.2998 140.303C84.3982 139.983 84.5211 139.615 84.6687 139.197L100.088 92.5341C100.456 91.3783 100.874 90.5176 101.342 89.952C101.809 89.3864 102.473 89.079 103.334 89.0298H108.83ZM92.8208 133.995H100.788L96.6939 119.573L92.8208 133.995ZM165.046 118.65L156.378 134.623C156.009 135.311 155.566 135.889 155.05 136.356C154.533 136.799 153.82 137.02 152.91 137.02C152.074 137.02 151.373 136.787 150.808 136.319C150.267 135.852 149.812 135.299 149.443 134.659L140.295 118.945C140.442 122.265 140.578 125.327 140.7 128.13C140.75 129.335 140.799 130.54 140.848 131.745C140.897 132.95 140.946 134.069 140.996 135.102C141.045 136.135 141.082 137.057 141.106 137.869C141.155 138.656 141.192 139.233 141.217 139.602C141.242 139.971 141.229 140.303 141.18 140.598C141.155 140.893 141.069 141.152 140.922 141.373C140.774 141.57 140.565 141.729 140.295 141.852C140.024 141.951 139.655 142 139.188 142H135.131C134.688 142 134.27 141.865 133.876 141.594C133.507 141.299 133.323 140.734 133.323 139.897V92.9767C133.323 92.5095 133.385 92.0423 133.507 91.575C133.655 91.1078 133.889 90.6897 134.208 90.3209C134.553 89.9274 134.995 89.62 135.536 89.3987C136.077 89.1528 136.741 89.0298 137.528 89.0298H149.406C150.365 89.0298 151.189 89.2019 151.877 89.5462C152.566 89.8659 153.156 90.4069 153.648 91.1693L163.571 106.92L170.21 94.194C170.604 93.4317 170.985 92.7431 171.354 92.1283C171.723 91.489 172.153 90.9479 172.645 90.5053C173.161 90.0381 173.788 89.6815 174.526 89.4356C175.289 89.1651 176.26 89.0298 177.44 89.0298H187.252C188.187 89.0298 188.986 89.1528 189.65 89.3987C190.339 89.6446 190.892 89.9766 191.31 90.3946C191.753 90.8127 192.072 91.3045 192.269 91.8701C192.466 92.4357 192.564 93.0505 192.564 93.7145V136.873C192.564 137.635 192.503 138.336 192.38 138.975C192.257 139.59 191.998 140.131 191.605 140.598C191.236 141.041 190.695 141.385 189.982 141.631C189.293 141.877 188.384 142 187.252 142H170.21C169.202 142 168.366 141.889 167.702 141.668C167.038 141.447 166.509 141.127 166.116 140.709C165.722 140.291 165.44 139.762 165.267 139.123C165.12 138.483 165.046 137.733 165.046 136.873V118.65ZM220.967 89.0298C221.41 89.0298 221.791 89.0913 222.111 89.2142C222.431 89.3126 222.713 89.497 222.959 89.7676C223.23 90.0381 223.476 90.3946 223.697 90.8373C223.918 91.2799 224.152 91.8209 224.398 92.4603L241.329 137.684C241.452 138.028 241.538 138.336 241.587 138.606C241.637 138.877 241.661 139.147 241.661 139.418C241.661 140.303 241.391 140.955 240.85 141.373C240.333 141.791 239.78 142 239.19 142H218.275C217.635 142 217.094 141.926 216.651 141.779C216.233 141.607 215.877 141.41 215.582 141.188C215.287 140.967 215.053 140.734 214.881 140.488C214.733 140.242 214.635 140.02 214.586 139.824L214.18 138.533H203.815L203.556 139.639C203.483 140.008 203.397 140.34 203.298 140.635C203.2 140.906 203.077 141.152 202.929 141.373C202.782 141.57 202.573 141.729 202.302 141.852C202.056 141.951 201.724 142 201.306 142H197.507C196.72 142 196.327 141.693 196.327 141.078C196.327 140.856 196.363 140.598 196.437 140.303C196.536 139.983 196.659 139.615 196.806 139.197L212.225 92.5341C212.594 91.3783 213.012 90.5176 213.479 89.952C213.946 89.3864 214.61 89.079 215.471 89.0298H220.967ZM204.958 133.995H212.926L208.831 119.573L204.958 133.995ZM254.092 101.719C254.363 99.0386 255.088 96.8007 256.268 95.0056C257.449 93.2104 258.912 91.7841 260.658 90.7266C262.404 89.6446 264.347 88.8823 266.486 88.4396C268.626 87.997 270.79 87.7756 272.978 87.7756C274.774 87.7756 276.532 87.8494 278.253 87.997C279.975 88.1445 281.561 88.3167 283.012 88.5134C284.463 88.7101 285.717 88.9068 286.774 89.1036C287.832 89.3003 288.606 89.4479 289.098 89.5462C289.393 89.62 289.541 89.7553 289.541 89.952C289.541 90.0012 289.516 90.1487 289.467 90.3946L288.914 93.0505C288.865 93.2227 288.791 93.3333 288.692 93.3825C288.619 93.4071 288.545 93.4194 288.471 93.4194C287.389 93.4194 286.455 93.6038 285.668 93.9727C284.881 94.3416 284.229 94.858 283.713 95.522C283.196 96.1859 282.803 96.9729 282.532 97.8828C282.262 98.7927 282.077 99.7763 281.979 100.834L279.766 127.651C279.569 129.815 279.016 131.856 278.106 133.774C277.196 135.692 275.929 137.364 274.306 138.791C272.683 140.217 270.691 141.348 268.331 142.184C265.97 143.021 263.265 143.439 260.215 143.439C258.174 143.439 256.207 143.34 254.313 143.144C252.42 142.947 250.698 142.713 249.149 142.443C247.6 142.172 246.26 141.914 245.129 141.668C244.022 141.398 243.223 141.201 242.731 141.078C242.436 141.004 242.288 140.869 242.288 140.672C242.288 140.647 242.313 140.512 242.362 140.266L242.989 137.463C243.038 137.291 243.1 137.192 243.173 137.168C243.272 137.119 243.358 137.094 243.432 137.094C244.514 137.094 245.51 136.934 246.42 136.614C247.354 136.295 248.166 135.766 248.854 135.028C249.543 134.291 250.108 133.331 250.551 132.151C251.018 130.971 251.338 129.52 251.51 127.798L254.092 101.719Z" fill="#4A391D"/>
</svg>
